<svg xmlns="http://www.w3.org/2000/svg" width="184" height="65" viewBox="0 0 184 65" fill="none">
<path d="M76.7666 16.4788C81.604 16.4788 83.8402 18.8975 82.8818 23.3242C82.3798 25.7429 80.8738 27.4771 78.9571 28.4811C80.8738 29.4394 81.8322 31.3105 81.2846 34.1856C80.2349 39.023 76.7666 41.3048 71.6554 41.3048H60.9766L66.2703 16.4788H76.7666ZM71.3359 36.6956C73.1614 36.6956 74.3023 35.8741 74.7586 33.8661C75.1693 31.8125 74.3935 31.0367 72.5681 31.0367H69.693L68.5065 36.6956H71.3359ZM73.4352 26.3818C74.9412 26.3818 75.9908 25.3778 76.3102 23.6893C76.6753 21.9551 76.0821 20.9968 74.5304 20.9968H71.7466L70.6057 26.3818H73.4352ZM101.958 16.4788C102.049 16.9808 102.003 17.8479 101.821 18.8063C101.593 19.8559 101.273 20.7686 100.908 21.3619H91.5527L90.503 26.3818H98.1699C98.2155 26.9751 98.2612 27.6596 98.033 28.7093C97.8048 29.8045 97.4853 30.4891 97.1659 31.128H89.499L88.3581 36.4217H98.033C98.0786 37.015 98.0786 37.8821 97.8504 38.7948C97.6222 39.7532 97.3484 40.6659 96.9833 41.2592H80.7369L86.0307 16.4332H101.958V16.4788ZM122.22 16.4788C122.22 16.4788 122.311 17.5741 121.992 19.1713C121.672 20.723 121.079 21.9095 121.079 21.9095H115.238L111.176 40.9853C111.176 40.9853 109.716 41.3048 107.845 41.3048C105.791 41.3048 104.65 40.9853 104.65 40.9853L108.712 21.9095H102.688C102.688 21.9095 102.551 20.8599 102.916 19.2626C103.281 17.6197 103.829 16.5245 103.829 16.5245H122.22V16.4788ZM130.298 16.4788C133.173 16.4788 134.45 16.7983 134.45 16.7983L136.824 40.9853C136.824 40.9853 135.637 41.3048 133.355 41.3048C131.302 41.3048 130.298 40.9853 130.298 40.9853L129.887 36.4217H121.946L119.619 40.9853C119.619 40.9853 118.387 41.3048 116.379 41.3048C114.462 41.3048 113.367 40.9853 113.367 40.9853L126.053 16.7983C126.008 16.7983 127.559 16.4788 130.298 16.4788ZM128.837 22.1833C128.837 22.1833 128.29 24.1457 127.103 26.3818L124.228 31.9038H129.476L128.974 26.3818C128.746 24.1 128.974 22.1833 128.974 22.1833H128.837ZM147.137 29.622C146.544 26.1993 146.635 23.1417 146.635 23.1417H146.453C146.453 23.1417 146.225 26.108 145.403 29.9871L143.076 40.9397C143.076 40.9397 142.026 41.2592 140.155 41.2592C138.284 41.2592 137.508 40.9397 137.508 40.9397L142.665 16.7526C142.665 16.7526 144.125 16.4332 147.092 16.4332C149.967 16.4332 151.199 16.7526 151.199 16.7526L153.207 27.9334C153.709 31.2649 153.709 35.0527 153.709 35.0527H153.846C153.846 35.0527 154.302 31.3561 155.124 27.5227L157.405 16.7526C157.405 16.7526 158.638 16.4332 160.326 16.4332C162.106 16.4332 163.019 16.7526 163.019 16.7526L157.907 40.9397C157.907 40.9397 156.538 41.2592 153.618 41.2592C150.879 41.2592 149.419 40.9397 149.419 40.9397L147.137 29.622ZM175.386 16.0225C182.049 16.0225 185.38 20.4492 183.464 29.4394C181.547 38.4297 176.755 41.7155 170.092 41.7155C163.429 41.7155 160.189 37.3801 162.06 28.3898C163.931 19.4908 168.723 16.0225 175.386 16.0225ZM174.428 20.9511C171.963 20.9511 170.275 22.4571 168.86 28.8918C167.537 35.2808 168.632 36.7868 171.051 36.7868C173.561 36.7868 175.249 35.2808 176.618 28.8918C177.987 22.4571 176.938 20.9511 174.428 20.9511Z" fill="#EDEDED"/>
<g opacity="0.6">
<path d="M162.928 16.798C162.928 16.798 162.015 16.4785 160.235 16.4785C158.547 16.4785 157.315 16.798 157.315 16.798L155.672 24.5561L161.331 24.2823L162.928 16.798Z" fill="white"/>
<path d="M175.384 16.0225C169.907 16.0225 165.709 18.3955 163.336 24.1457L170.455 23.7806C171.55 21.59 172.828 20.9511 174.38 20.9511C175.931 20.9511 176.935 21.5444 177.118 23.4611L183.826 23.1417C183.279 18.3955 180.221 16.0225 175.384 16.0225Z" fill="white"/>
<path d="M98.1179 26.3356H90.451L91.5007 21.3157H100.856C101.221 20.7224 101.495 19.8097 101.769 18.7601C101.951 17.8473 101.997 16.9802 101.906 16.4326H85.9787L83.4688 28.1611L98.0723 27.4309C98.1635 27.0202 98.1179 26.6551 98.1179 26.3356Z" fill="white"/>
<path d="M82.8809 23.3239C83.7936 18.8972 81.5575 16.4785 76.7657 16.4785H66.2238L63.5312 29.2109L79.1388 28.4351C80.9642 27.3855 82.3789 25.697 82.8809 23.3239ZM76.355 23.689C75.9899 25.3775 74.9859 26.3815 73.4799 26.3815H70.6505L71.7914 20.9965H74.5752C76.0811 20.9965 76.72 21.9548 76.355 23.689Z" fill="white"/>
<path d="M115.234 21.8633H121.075C121.075 21.8633 121.669 20.6768 121.988 19.1251C122.353 17.5279 122.216 16.4326 122.216 16.4326H103.779C103.779 16.4326 103.186 17.5279 102.867 19.1708C102.502 20.768 102.638 21.8177 102.638 21.8177H108.662L107.567 26.8833L114.184 26.5638L115.234 21.8633Z" fill="white"/>
<path d="M146.448 23.1411H146.63C146.63 23.1411 146.63 23.8713 146.676 24.9665L152.563 24.6471L151.148 16.7521C151.148 16.7521 149.962 16.4326 147.041 16.4326C144.12 16.4326 142.615 16.7521 142.615 16.7521L140.789 25.2404L146.22 24.9665C146.402 23.8713 146.448 23.1411 146.448 23.1411Z" fill="white"/>
<path d="M128.885 22.183H129.021C129.021 22.183 128.839 23.8259 128.976 25.8795L135.319 25.5601L134.452 16.798C134.452 16.798 133.174 16.4785 130.299 16.4785C127.561 16.4785 126.009 16.798 126.009 16.798L121.035 26.2902L127.379 25.9708C128.383 23.9172 128.885 22.183 128.885 22.183Z" fill="white"/>
</g>
<g opacity="0.1">
<path d="M104.609 40.9875C104.609 40.9875 105.75 41.3069 107.804 41.3069C109.721 41.3069 111.135 40.9875 111.135 40.9875L111.911 37.4735L105.431 37.1084L104.609 40.9875Z" fill="#949B95"/>
<path d="M130.302 40.9856C130.302 40.9856 131.352 41.305 133.36 41.305C135.596 41.305 136.828 40.9856 136.828 40.9856L136.6 38.8407L130.074 38.4756L130.302 40.9856Z" fill="#949B95"/>
<path d="M113.324 40.9874C113.324 40.9874 114.419 41.3069 116.336 41.3069C118.344 41.3069 119.576 40.9874 119.576 40.9874L121.128 37.9754L115.058 37.6104L113.324 40.9874Z" fill="#949B95"/>
<path d="M88.3139 36.4218L88.4051 36.1024L81.9248 35.7373L80.7383 41.3049H96.9847C97.3498 40.666 97.6236 39.7989 97.8518 38.8405C98.0343 38.0647 98.0799 37.2433 98.0343 36.6957L94.064 36.4675H88.3139V36.4218Z" fill="#949B95"/>
<path d="M170.096 41.717C171.83 41.717 173.473 41.4888 174.933 40.9868L164.848 40.3936C166.217 41.3063 167.997 41.717 170.096 41.717Z" fill="#949B95"/>
<path d="M137.465 40.9862C137.465 40.9862 138.241 41.3057 140.112 41.3057C142.028 41.3057 143.032 40.9862 143.032 40.9862L143.398 39.2521L137.876 38.9326L137.465 40.9862Z" fill="#949B95"/>
<path d="M71.6124 41.2608C76.176 41.2608 79.4618 39.481 80.8309 35.6475L74.168 35.2825C73.5748 36.2408 72.6164 36.6972 71.3386 36.6972H68.4635L68.8286 35.0086L62.3483 34.6436L60.9336 41.3064H71.6124V41.2608Z" fill="#949B95"/>
<path d="M149.284 40.987C149.284 40.987 150.745 41.3064 153.483 41.3064C156.404 41.3064 157.773 40.987 157.773 40.987L157.955 40.0743L148.965 39.5723L149.284 40.987Z" fill="#949B95"/>
</g>
<g opacity="0.1">
<path d="M104.797 40.9377C104.797 40.9377 105.938 41.2571 107.991 41.2571C109.862 41.2571 111.323 40.9377 111.323 40.9377L112.053 37.4237L105.618 37.0586L104.797 40.9377Z" fill="#949B95"/>
<path d="M130.399 40.9377C130.399 40.9377 131.448 41.2572 133.456 41.2572C135.693 41.2572 136.879 40.9377 136.879 40.9377L136.651 38.7928L130.125 38.4277L130.399 40.9377Z" fill="#949B95"/>
<path d="M113.469 40.9376C113.469 40.9376 114.564 41.2571 116.481 41.2571C118.489 41.2571 119.721 40.9376 119.721 40.9376L121.273 37.9256L115.203 37.5605L113.469 40.9376Z" fill="#949B95"/>
<path d="M88.504 36.4189L88.5497 36.0995L82.0694 35.7344L80.8828 41.2563H97.1292C97.4943 40.6174 97.7681 39.7503 97.9963 38.792C98.1788 38.0162 98.2245 37.2404 98.1788 36.6471L94.2085 36.4189H88.504Z" fill="#949B95"/>
<path d="M170.101 41.7134C171.835 41.7134 173.478 41.4852 174.938 40.9832L164.898 40.4355C166.268 41.3026 168.002 41.7134 170.101 41.7134Z" fill="#949B95"/>
<path d="M137.562 40.9384C137.562 40.9384 138.338 41.2578 140.209 41.2578C142.08 41.2578 143.13 40.9384 143.13 40.9384L143.495 39.2042L137.973 38.8848L137.562 40.9384Z" fill="#949B95"/>
<path d="M71.8454 41.2578C76.409 41.2578 79.6491 39.478 81.0638 35.6446L74.4466 35.2795C73.8533 36.2379 72.895 36.6942 71.6172 36.6942H68.7421L69.1072 35.0057L62.6725 34.6406L61.2578 41.3035H71.8454V41.2578Z" fill="#949B95"/>
<path d="M149.332 40.9382C149.332 40.9382 150.793 41.2576 153.531 41.2576C156.452 41.2576 157.821 40.9382 157.821 40.9382L158.003 40.0254L149.059 39.5234L149.332 40.9382Z" fill="#949B95"/>
</g>
<path d="M53.9477 36.5572C53.7195 35.9639 53.4 35.4163 53.0806 34.8687C52.6699 34.1841 52.2135 33.5909 51.7572 32.952C51.5746 32.6781 51.3464 32.4043 51.1639 32.0849C50.8901 31.5829 50.9813 30.9896 51.3464 30.4876C54.906 25.3764 54.5866 20.3108 53.6739 17.3901C52.4873 13.5567 48.7908 9.76888 44.1359 6.93945C41.124 5.11401 37.8382 3.60802 34.5068 2.42149C32.088 1.55441 29.6693 0.824231 27.1137 0.367871C25.4252 0.0940551 23.691 -0.0428514 22.0025 0.2766C19.5838 0.50478 17.0738 1.00678 14.7007 1.46313C11.917 2.01077 8.76807 2.37585 6.57754 4.29256C4.56956 6.02673 3.38302 8.58235 2.65285 11.0923C1.28377 15.8385 0.644867 20.7215 0.27978 25.6502C-0.0396722 30.5332 -0.0396736 35.4163 0.14287 40.2993C0.234142 43.1288 0.507958 46.0038 1.05559 48.7876C1.74013 52.3929 2.92667 56.135 5.11719 59.1014C5.71046 59.8772 6.44063 60.6073 7.21645 61.2006C9.27006 62.7066 11.9169 62.9804 14.3813 63.2086C19.1731 63.665 24.1474 65.1709 28.8935 63.5737C30.1257 63.2542 31.4035 62.9348 32.6357 62.5241C35.0087 61.7482 37.2906 60.7899 39.5267 59.7403C41.8998 58.5994 44.1816 57.2759 46.2808 55.7243C48.3345 54.2183 50.2512 52.4841 51.8028 50.4762C53.2631 48.5595 54.1759 46.4602 54.7235 44.1328C54.7691 43.859 54.8604 43.5851 54.906 43.3113C55.2711 41.0295 54.8604 38.6564 53.9477 36.5572ZM28.1634 44.224C27.4332 44.7717 26.6574 45.228 25.8359 45.6844C23.7823 46.8709 21.5461 48.0575 19.2643 48.6964C18.4885 48.9245 17.6671 49.0615 16.8913 49.0615C16.7087 49.0615 15.1571 49.0158 15.1571 48.9245C12.1451 32.3587 15.1571 15.3821 15.1571 15.3821C15.3853 14.9714 17.4389 15.3365 17.6671 15.3821C19.4925 15.7016 21.2267 16.4317 22.9152 17.1619C24.4668 17.8464 26.0185 18.531 27.4332 19.4893C29.1673 20.6759 31.3122 22.5926 31.5404 24.8288C31.723 26.7455 31.1297 28.2058 30.217 29.8031C29.8975 30.3963 29.2586 31.0809 29.3499 31.8111C29.4868 32.6781 30.1713 33.3627 30.6733 34.0016C31.1297 34.5948 31.4948 35.2338 31.7686 35.9183C33.092 39.2954 30.6733 42.353 28.1634 44.224Z" fill="url(#paint0_linear_133_514)"/>
<path d="M53.9477 36.511C53.7195 35.9178 53.4 35.3701 53.0806 34.8225C52.6699 34.138 52.2135 33.5447 51.7572 32.8602C51.5746 32.5863 51.3464 32.3125 51.1639 31.9931C50.8901 31.4911 50.9813 30.8978 51.3464 30.3958C54.906 25.2846 54.5866 20.219 53.6739 17.2983C52.4873 13.4649 48.7908 9.67708 44.1359 6.84765C41.124 5.02222 37.8382 3.51623 34.5068 2.32969C32.0881 1.46261 29.6693 0.732435 27.1137 0.276075C25.4252 0.00225938 23.691 -0.134649 22.0025 0.184803C19.5838 0.412983 17.0738 0.914978 14.7007 1.37134C11.917 1.91897 8.76807 2.32969 6.57754 4.20077C4.29574 6.16311 3.38302 8.49055 2.65285 11.0005C1.28377 15.7467 0.644867 20.6297 0.27978 25.5584C-0.0396722 30.4414 -0.0396736 35.3245 0.14287 40.2075C0.234142 43.037 0.553594 45.912 1.05559 48.6958C1.74013 52.3011 2.88103 55.9976 5.11719 58.9639C5.71046 59.7397 6.44063 60.4699 7.21645 61.0632C9.27006 62.5692 11.9169 62.843 14.3813 63.0712C19.1731 63.5275 24.1474 65.0335 28.8935 63.4819C30.1257 63.1624 31.4035 62.843 32.6357 62.4323C35.0088 61.6565 37.2905 60.6981 39.5723 59.6485C41.9454 58.5076 44.2272 57.1841 46.3265 55.6325C48.3801 54.1265 50.2968 52.3923 51.8484 50.3844C53.3088 48.4677 54.2215 46.3684 54.7691 44.041C54.8148 43.7672 54.906 43.4933 54.9517 43.2195C55.2711 40.9834 54.8148 38.6103 53.9477 36.511ZM48.9277 50.8407C48.9277 50.8407 45.2768 55.4956 33.6397 60.0136C33.6397 60.0136 27.205 62.7517 23.4629 61.8846C23.4629 61.8846 18.7623 61.4739 16.4805 56.5909C16.4805 56.5909 13.5142 52.6205 12.9209 35.1876C12.9209 35.1876 12.9209 16.705 16.1155 9.12945C16.1155 9.12945 18.2147 2.19279 25.3796 2.37533C25.3796 2.37533 34.1417 2.78605 45.1399 9.90526C45.1399 9.90526 54.6322 14.9252 51.8941 25.3302C51.8941 25.3302 50.9357 27.9315 48.9277 30.8065C48.9277 30.8065 48.3345 31.5823 49.019 32.4038C49.019 32.4038 53.4 37.1956 53.2175 41.6223C53.2175 41.6223 53.7195 46.5053 48.9277 50.8407Z" fill="#373531"/>
<path d="M53.9477 36.511C53.7195 35.9178 53.4 35.3701 53.0806 34.8225C52.6699 34.138 52.2135 33.5447 51.7572 32.8602C51.5746 32.5863 51.3464 32.3125 51.1639 31.9931C50.8901 31.4911 51.027 30.8978 51.3921 30.3958C54.9517 25.2846 54.5866 20.219 53.6739 17.2983C52.4873 13.4649 48.7908 9.67709 44.1359 6.84766C41.124 5.02222 37.8382 3.51623 34.5068 2.32969C32.088 1.46261 29.6693 0.732435 27.1137 0.276075C25.4252 0.00225938 23.691 -0.134649 22.0025 0.184803C19.5838 0.412983 17.0738 0.914978 14.7007 1.37134C11.917 1.91897 8.72243 2.28406 6.57754 4.20077C4.02193 6.48257 3.38302 8.49055 2.65285 11.0005C1.28377 15.7467 0.644867 20.6297 0.27978 25.5584C-0.0396722 30.4415 -0.0396736 35.3245 0.14287 40.2075C0.234142 43.037 0.507958 45.912 1.05559 48.6958C1.74013 52.3011 2.92667 56.0432 5.11719 59.0096C5.71046 59.7854 6.44063 60.5156 7.21645 61.1088C9.27006 62.6148 11.9169 62.8886 14.3813 63.1168C19.1731 63.5732 24.1474 65.0792 28.8935 63.5275C30.1257 63.2081 31.4035 62.8886 32.6357 62.4779C35.0087 61.7021 37.2905 60.7437 39.5723 59.6941C41.9454 58.5532 44.2729 57.2754 46.3721 55.7238C48.4257 54.2178 50.3424 52.4836 51.8484 50.4756C53.3088 48.5589 54.2215 46.414 54.7235 44.0866C54.7691 43.8128 54.8604 43.539 54.906 43.2652C55.3168 40.9834 54.8148 38.6103 53.9477 36.511ZM49.4297 51.6165C49.4297 51.6165 45.4137 56.3627 33.3659 61.0632C33.3659 61.0632 26.7486 63.7557 22.8696 62.843C22.8696 62.843 17.9409 62.5692 15.5678 57.5036C15.5678 57.5036 12.5102 53.3507 11.8713 35.3245C11.8713 35.3245 11.8713 16.1118 15.2027 8.26237C15.2027 8.26237 17.302 1.23443 24.7863 1.41697C24.7863 1.41697 33.9591 1.69079 45.3681 9.08382C45.3681 9.08382 55.5449 14.4689 52.6699 25.2846C52.6699 25.2846 52.0766 27.5664 49.9773 30.6696C49.9773 30.6696 49.3841 31.4911 49.7948 31.9931C49.7948 31.9931 54.3584 37.3325 54.1759 41.8961C54.0846 41.8961 54.3584 47.1442 49.4297 51.6165Z" fill="url(#paint1_linear_133_514)"/>
<path d="M49.0169 35.3706C48.6518 34.8229 48.3324 34.2753 47.9673 33.7733C47.4196 32.9975 46.9176 32.4499 46.7351 31.5371C46.6895 31.309 46.8264 30.5332 47.0546 30.2137C49.884 26.1521 50.8423 23.9159 50.4316 20.402C49.2907 10.499 34.0939 6.11792 30.7169 5.02266C21.042 1.91941 17.9844 5.47901 16.2959 10.8641C15.8852 12.005 15.5201 13.374 15.1094 15.382C15.3376 14.9713 17.3455 15.4733 17.5737 15.5189C19.171 15.8384 21.1333 16.5686 22.8219 17.2987C24.3735 17.9833 25.9251 18.6678 27.3398 19.6262C29.074 20.8127 31.1732 22.7294 31.4471 24.9656C31.6296 26.8823 31.0363 28.3426 30.1236 29.9399C29.8042 30.5332 29.1653 31.2177 29.2565 31.9022C29.3934 32.7693 30.078 33.4539 30.58 34.0928C31.0363 34.686 31.3558 35.3249 31.6296 36.0095C32.953 39.204 30.58 42.3072 28.07 44.1783C27.3398 44.7259 26.564 45.1823 25.7882 45.6387C23.7346 46.8252 21.544 48.0117 19.2166 48.6506C18.4408 48.8788 17.6194 49.0157 16.8435 49.0157C16.7066 49.0157 15.2006 48.9701 15.1094 48.8788C15.4745 50.9324 15.8395 52.3471 16.0677 53.123C17.665 58.5993 20.3575 60.7898 25.1949 60.4247C29.7129 60.0596 51.2531 53.3055 51.2531 41.4858C51.2531 39.204 50.2491 37.2416 49.0169 35.3706Z" fill="#FBB03B"/>
<path d="M17.1226 61.9758C13.1522 59.0551 11.9201 53.6244 11.2355 49.0608C11.0074 47.3267 10.7792 45.5925 10.5966 43.8127C10.4597 42.4893 10.3228 41.2114 10.2315 39.888C9.91209 35.4157 9.86646 30.9434 10.1403 26.471C10.2315 24.9194 10.3684 23.3678 10.5054 21.8162C10.6879 19.8082 10.9161 17.7546 11.2812 15.7466C12.2852 9.85954 14.0193 2.9685 20.1802 0.595434C20.7278 0.367254 21.0016 0.321619 21.5949 0.230347C19.1762 0.458527 16.94 0.869251 14.6126 1.32561C11.8288 1.87324 8.77119 2.28397 6.6263 4.20068C4.25323 6.29993 3.29488 8.44482 2.5647 11.0004C1.19562 15.7466 0.556716 20.6753 0.191628 25.6039C-0.127823 30.487 0.00908461 35.4157 0.191628 40.2987C0.2829 43.1282 0.602352 45.912 1.10435 48.6957C1.78889 52.301 2.83851 56.0888 5.02904 59.0551C5.62231 59.8309 6.35249 60.5611 7.1283 61.1544C9.18192 62.6604 11.8288 62.9342 14.2931 63.1623C19.0849 63.6187 24.0592 65.1247 28.8054 63.5731C24.8807 64.5771 20.5453 64.5314 17.1226 61.9758Z" fill="url(#paint2_linear_133_514)"/>
<path opacity="0.7" d="M16.0276 15.2449C16.0276 15.2449 15.982 11.1377 20.3174 4.88556C20.3174 4.88556 23.2837 2.32995 31.4982 5.29629C33.4149 5.93519 42.0401 8.39953 47.0144 13.6477C47.0144 13.6477 49.0681 15.7013 49.8895 18.1656L31.3613 24.6003C31.3613 24.6003 31.3613 24.509 31.3157 24.3721C31.1331 23.7332 30.3573 21.7709 28.0755 20.128C27.4366 19.6716 26.7977 19.2153 26.1132 18.8502C26.0675 18.8045 25.9762 18.8045 25.9306 18.7589C24.7441 18.0744 22.873 17.2985 22.873 17.2985C22.873 17.2985 18.5376 15.3818 16.0276 15.2449Z" fill="url(#paint3_linear_133_514)"/>
<path opacity="0.85" d="M30.082 29.9394C30.082 29.9394 40.989 28.2965 48.2908 28.3421C48.2908 28.3421 50.1618 25.6496 50.4357 23.0027C50.4357 23.0027 50.7095 20.4471 49.888 18.2109L31.3598 24.6456C31.3598 24.6456 31.5424 25.2389 31.4055 26.4711C31.4055 26.5167 31.4055 26.608 31.4055 26.6536C31.2686 27.475 30.9035 28.6159 30.082 29.9394Z" fill="url(#paint4_linear_133_514)"/>
<path d="M47.1961 29.9864C47.1961 29.9864 49.2953 26.9744 49.6148 25.9248L30.9953 28.1153C30.9953 28.1153 30.2195 29.8951 29.6719 30.534L47.1961 29.9864Z" fill="url(#paint5_linear_133_514)"/>
<path opacity="0.85" d="M29.6751 30.533L47.1993 29.9854C47.1993 29.9854 46.6061 30.7155 46.7886 31.7195L29.2188 31.6739C29.2188 31.6739 29.2644 31.1719 29.6751 30.533Z" fill="#CC5827"/>
<path d="M29.2166 31.6729L46.7865 31.7185C46.7865 31.7185 47.0603 32.403 48.1099 33.9546C48.6576 34.7761 50.6199 37.5599 50.9394 39.2484C50.9394 39.2484 42.6792 37.6055 31.7723 36.4646C31.7723 36.4646 30.7226 34.1372 30.0837 33.4983C30.0837 33.4983 29.0341 32.3118 29.2166 31.6729Z" fill="url(#paint6_linear_133_514)"/>
<path opacity="0.85" d="M31.7755 36.4658C31.7755 36.4658 41.8154 37.4698 50.9426 39.2496C50.9426 39.2496 52.4942 43.1287 49.0259 47.9205L30.9541 41.2576C30.9084 41.2576 32.5513 39.0671 31.7755 36.4658Z" fill="url(#paint7_linear_133_514)"/>
<path d="M15.4745 48.9702L21.0421 59.9228C21.0421 59.9228 19.7642 59.5577 18.8059 58.4168C18.8059 58.4168 18.1213 57.7779 17.4368 56.5914C17.2999 56.3176 16.8892 55.6787 16.4328 54.3552C16.2959 54.0358 15.7939 52.4385 15.5657 51.1151C15.2919 49.9285 15.1094 48.8789 15.1094 48.8789C15.1094 48.8789 15.2006 48.9245 15.4745 48.9702Z" fill="url(#paint8_linear_133_514)"/>
<path d="M16.0287 15.2441C16.0287 15.2441 16.1199 12.9167 17.6259 9.53963C18.2648 8.21619 19.7252 5.70621 20.3184 4.88477C20.3184 4.88477 18.2648 5.84312 17.0327 8.85509C16.7132 9.53963 15.8918 11.9127 15.5267 13.2818C15.2529 14.3314 15.0703 15.1529 15.0703 15.381C15.1159 15.381 15.3441 15.1529 16.0287 15.2441Z" fill="url(#paint9_linear_133_514)"/>
<path opacity="0.85" d="M30.9081 41.2588L48.9799 47.9216C48.9799 47.9216 47.3827 50.386 43.5036 53.0329C43.0929 53.3067 42.6822 53.5805 42.2714 53.8543C41.4956 54.3563 40.6742 54.8127 39.7158 55.3147C38.438 55.9992 36.8864 56.775 34.9241 57.5508C34.2852 57.8246 30.2236 59.4675 26.4358 60.1977C25.7969 60.289 23.4238 60.8366 21.0051 59.9239L15.4375 48.9713C15.4375 48.9713 16.9891 49.1082 17.9475 48.9256C18.7689 48.7431 20.138 48.5605 23.3782 46.9177C24.3365 46.4157 26.5727 45.1378 26.8465 44.9553C27.1203 44.7728 28.8088 43.7688 29.8585 42.491C30.3148 42.0802 30.4517 41.8977 30.9081 41.2588Z" fill="url(#paint10_linear_133_514)"/>
<g opacity="0.6">
<path opacity="0.1" d="M162.924 16.796C162.924 16.796 162.011 16.4766 160.232 16.4766C158.543 16.4766 157.311 16.796 157.311 16.796L155.668 24.5541L161.327 24.2803L162.924 16.796Z" fill="white"/>
<path opacity="0.1" d="M175.381 16.0664C169.905 16.0664 165.752 18.4395 163.379 24.1896L170.498 23.8245C171.594 21.634 172.871 20.9951 174.423 20.9951C175.975 20.9951 176.933 21.5884 177.161 23.5051L183.824 23.1856C183.276 18.3938 180.219 16.0664 175.381 16.0664Z" fill="white"/>
<path opacity="0.1" d="M98.2583 26.3796H90.6371L91.6868 21.3596H101.042C101.407 20.7663 101.681 19.8536 101.955 18.804C102.137 17.8913 102.183 17.0242 102.092 16.4766H86.2104L83.7461 28.1594L98.304 27.4292C98.304 27.0185 98.304 26.699 98.2583 26.3796Z" fill="white"/>
<path opacity="0.1" d="M83.0606 23.3679C83.9733 18.9412 81.7371 16.5225 76.9454 16.5225H66.4035L63.7109 29.2093L79.2728 28.4334C81.1439 27.3838 82.5586 25.6953 83.0606 23.3679ZM76.5346 23.7329C76.1696 25.4215 75.1656 26.4255 73.6596 26.4255H70.8758L72.0167 21.0404H74.8005C76.3065 21.0404 76.8997 21.9531 76.5346 23.7329Z" fill="white"/>
<path opacity="0.1" d="M115.368 21.9072H121.209C121.209 21.9072 121.803 20.7207 122.122 19.1691C122.487 17.5718 122.35 16.4766 122.35 16.4766H103.959C103.959 16.4766 103.366 17.5718 103.046 19.2147C102.681 20.812 102.818 21.8616 102.818 21.8616H108.842L107.747 26.9272L114.364 26.6077L115.368 21.9072Z" fill="white"/>
<path opacity="0.1" d="M146.497 23.185H146.68C146.68 23.185 146.68 23.9152 146.725 25.0105L152.612 24.691L151.198 16.796C151.198 16.796 150.011 16.4766 147.091 16.4766C144.17 16.4766 142.709 16.796 142.709 16.796L140.93 25.2843L146.36 25.0105C146.452 23.8696 146.497 23.185 146.497 23.185Z" fill="white"/>
<path opacity="0.1" d="M128.972 22.2267H129.109C129.109 22.2267 128.926 23.8696 129.063 25.9232L135.406 25.6038L134.539 16.796C134.539 16.796 133.261 16.4766 130.432 16.4766C127.694 16.4766 126.142 16.796 126.142 16.796L121.168 26.2883L127.511 25.9688C128.47 23.9152 128.972 22.2267 128.972 22.2267Z" fill="white"/>
</g>
<defs>
<linearGradient id="paint0_linear_133_514" x1="0.103168" y1="32.1602" x2="55.0893" y2="32.1602" gradientUnits="userSpaceOnUse">
<stop offset="0.0648879" stop-color="#F07422"/>
<stop offset="0.8317" stop-color="#AF3424"/>
</linearGradient>
<linearGradient id="paint1_linear_133_514" x1="0.0830877" y1="32.1514" x2="55.093" y2="32.1514" gradientUnits="userSpaceOnUse">
<stop offset="0.4302" stop-color="#BDBEC0"/>
<stop offset="0.6503" stop-color="white"/>
<stop offset="1" stop-color="#A8AAAD"/>
</linearGradient>
<linearGradient id="paint2_linear_133_514" x1="14.4285" y1="3.48401" x2="14.4285" y2="65.5908" gradientUnits="userSpaceOnUse">
<stop stop-color="#595A5C" stop-opacity="0.4"/>
<stop offset="0.00400144" stop-color="#5E5F60" stop-opacity="0.4183"/>
<stop offset="0.0312875" stop-color="#808080" stop-opacity="0.5429"/>
<stop offset="0.0581798" stop-color="#9FA19F" stop-opacity="0.6658"/>
<stop offset="0.0842251" stop-color="#B8BBB7" stop-opacity="0.7847"/>
<stop offset="0.1091" stop-color="#CACDC8" stop-opacity="0.8981"/>
<stop offset="0.1314" stop-color="#D1D5CF"/>
<stop offset="0.4776" stop-color="#D2D3D4"/>
<stop offset="0.6884" stop-color="#424143" stop-opacity="0.1"/>
<stop offset="0.6974" stop-color="#4A494A" stop-opacity="0.1393"/>
<stop offset="0.7395" stop-color="#6E6D6C" stop-opacity="0.3237"/>
<stop offset="0.7811" stop-color="#8E908D" stop-opacity="0.5054"/>
<stop offset="0.8214" stop-color="#A9ADA8" stop-opacity="0.6815"/>
<stop offset="0.8597" stop-color="#BBC0BB" stop-opacity="0.8493"/>
<stop offset="0.8942" stop-color="#C3C9C3"/>
<stop offset="1" stop-color="#373531"/>
</linearGradient>
<linearGradient id="paint3_linear_133_514" x1="33.9368" y1="13.3231" x2="27.1692" y2="23.6574" gradientUnits="userSpaceOnUse">
<stop stop-color="#E05926"/>
<stop offset="1" stop-color="#FBB03B"/>
</linearGradient>
<linearGradient id="paint4_linear_133_514" x1="29.0365" y1="28.1187" x2="49.6279" y2="23.1047" gradientUnits="userSpaceOnUse">
<stop stop-color="#DB8B27"/>
<stop offset="1" stop-color="#BC4026"/>
</linearGradient>
<linearGradient id="paint5_linear_133_514" x1="39.7893" y1="24.7551" x2="39.6301" y2="28.7338" gradientUnits="userSpaceOnUse">
<stop stop-color="#E45B25"/>
<stop offset="1" stop-color="#FBB03B"/>
</linearGradient>
<linearGradient id="paint6_linear_133_514" x1="49.9142" y1="35.4978" x2="27.6594" y2="35.3031" gradientUnits="userSpaceOnUse">
<stop stop-color="#E45B25"/>
<stop offset="1" stop-color="#FBB03B"/>
</linearGradient>
<linearGradient id="paint7_linear_133_514" x1="29.2198" y1="38.9331" x2="47.9002" y2="43.1168" gradientUnits="userSpaceOnUse">
<stop stop-color="#DB8B27"/>
<stop offset="1" stop-color="#BC4026"/>
</linearGradient>
<linearGradient id="paint8_linear_133_514" x1="15.2233" y1="50.5782" x2="23.2235" y2="64.6769" gradientUnits="userSpaceOnUse">
<stop offset="0.0648879" stop-color="#EFA133"/>
<stop offset="0.8317" stop-color="#F26222"/>
</linearGradient>
<linearGradient id="paint9_linear_133_514" x1="15.4243" y1="16.6678" x2="19.0997" y2="5.5045" gradientUnits="userSpaceOnUse">
<stop offset="0.0648879" stop-color="#EFA133"/>
<stop offset="0.8317" stop-color="#F26222"/>
</linearGradient>
<linearGradient id="paint10_linear_133_514" x1="37.065" y1="56.8742" x2="30.5587" y2="47.423" gradientUnits="userSpaceOnUse">
<stop stop-color="#E45B25"/>
<stop offset="1" stop-color="#FBB03B"/>
</linearGradient>
</defs>
</svg>