<svg xmlns="http://www.w3.org/2000/svg" width="130px" height="108px" viewBox="0 0 130 108">
						<g transform="translate(-260 -3509)">
							<rect width="130" height="108" transform="translate(260 3509)" fill="none"></rect>
							<g transform="translate(262.794 3511.235)">
								<path d="M9.725,86.922,8.96,88.5a5.892,5.892,0,0,0-2.545-.83c-.516,0-.867.194-.867.581,0,1.374,4.2.59,4.2,3.467,0,1.586-1.4,2.425-3.181,2.425A5.929,5.929,0,0,1,2.93,92.869l.784-1.549A5,5,0,0,0,6.59,92.454c.636,0,1.014-.221,1.014-.673,0-1.411-4.2-.572-4.2-3.384C3.419,86.922,4.682,86,6.59,86a5.975,5.975,0,0,1,3.135.922Z" transform="translate(-2.746 -8.549)" fill="#fff"></path>
								<path d="M17.236,91.688h-4.3a1.411,1.411,0,0,0,1.438,1.134,2.065,2.065,0,0,0,1.466-.618l1.033,1.005a3.522,3.522,0,0,1-2.665,1.079A3.144,3.144,0,1,1,14.147,88C16.3,88,17.374,89.429,17.236,91.688Zm-1.844-1.051a1.143,1.143,0,0,0-1.18-1.236,1.319,1.319,0,0,0-1.272,1.236Z" transform="translate(-3.377 -8.705)" fill="#fff"></path>
								<path d="M20.884,89.106A2.268,2.268,0,0,1,22.876,88v1.78a1.63,1.63,0,0,0-1.992,1.291v3.144H18.92V88.074h1.964Z" transform="translate(-3.992 -8.705)" fill="#fff"></path>
								<path d="M25.805,94.2,23.5,88.08h2.028L26.838,92.4l1.337-4.324H30.12L27.815,94.2Z" transform="translate(-4.349 -8.711)" fill="#fff"></path>
								<path d="M33.505,86.083a1.033,1.033,0,1,1-1.033-1.033,1.005,1.005,0,0,1,1.033,1.033Zm-2.019,7.883V87.844h1.955v6.122Z" transform="translate(-4.968 -8.475)" fill="#fff"></path>
								<path d="M40.707,92.84a2.766,2.766,0,0,1-2.158,1.374l-.286.562a.922.922,0,0,1,.775.922c0,.719-.59,1.171-1.42,1.171a1.973,1.973,0,0,1-1.079-.35l.36-.8a.922.922,0,0,0,.562.221.424.424,0,0,0,.47-.415c0-.231-.175-.415-.516-.415a3.568,3.568,0,0,0-.415,0l.443-.922a2.914,2.914,0,0,1-2.674-3.08A3,3,0,0,1,37.951,88a3.052,3.052,0,0,1,2.766,1.374l-1.411.848a1.457,1.457,0,0,0-1.236-.636c-.756,0-1.282.627-1.282,1.549s.526,1.549,1.282,1.549a1.346,1.346,0,0,0,1.254-.692Z" transform="translate(-5.227 -8.704)" fill="#fff"></path>
								<path d="M48.192,91.125a3.061,3.061,0,0,1-3.338,3.135,3.135,3.135,0,1,1,0-6.251,3.052,3.052,0,0,1,3.338,3.117Zm-4.712,0a1.383,1.383,0,1,0,1.374-1.586,1.411,1.411,0,0,0-1.374,1.614Z" transform="translate(-5.751 -8.704)" fill="#fff"></path>
								<path d="M58.886,94.007H56.922v-.8a2.222,2.222,0,0,1-1.844.922,2.858,2.858,0,0,1-2.868-3.172,2.827,2.827,0,0,1,2.831-3.144,2.259,2.259,0,0,1,1.844.922V85.58h1.964Zm-1.964-3.043a1.411,1.411,0,0,0-1.365-1.586,1.429,1.429,0,0,0-1.374,1.586,1.448,1.448,0,0,0,1.374,1.6,1.429,1.429,0,0,0,1.365-1.6Z" transform="translate(-6.587 -8.516)" fill="#fff"></path>
								<path d="M66.948,91.688h-4.3a1.4,1.4,0,0,0,1.438,1.134,2.084,2.084,0,0,0,1.5-.645l1.033,1.005a3.531,3.531,0,0,1-2.674,1.079A3.131,3.131,0,0,1,63.859,88C66.017,88,67.086,89.429,66.948,91.688ZM65.1,90.637a1.143,1.143,0,0,0-1.18-1.236,1.309,1.309,0,0,0-1.272,1.236Z" transform="translate(-7.255 -8.705)" fill="#fff"></path>
								<path d="M75.114,91.807h-1.6v2.241H71.5V86.1h3.559c2.1,0,3.3,1,3.3,2.766a2.637,2.637,0,0,1-1.438,2.554l1.669,2.628h-2.3Zm-.055-1.586c.922,0,1.383-.443,1.383-1.282s-.507-1.254-1.383-1.254h-1.54v2.536Z" transform="translate(-8.091 -8.556)" fill="#fff"></path>
								<path d="M86.145,91.688H81.839a1.411,1.411,0,0,0,1.438,1.134,2.065,2.065,0,0,0,1.466-.618l1.033,1.005a3.5,3.5,0,0,1-2.665,1.079A3.144,3.144,0,0,1,83.056,88C85.214,88,86.274,89.429,86.145,91.688ZM84.3,90.637a1.143,1.143,0,0,0-1.18-1.236,1.318,1.318,0,0,0-1.282,1.208Z" transform="translate(-8.749 -8.705)" fill="#fff"></path>
								<path d="M93.628,93.642c0,1.733-1.337,2.831-3.319,2.831a4.915,4.915,0,0,1-2.72-.8l.682-1.328a3.365,3.365,0,0,0,1.844.609c.922,0,1.512-.5,1.512-1.254v-.645a2.121,2.121,0,0,1-1.761.811,2.674,2.674,0,0,1-2.637-2.96A2.609,2.609,0,0,1,89.866,88a2.13,2.13,0,0,1,1.844.821v-.756h1.955Zm-1.955-2.683A1.3,1.3,0,1,0,90.4,92.444a1.328,1.328,0,0,0,1.272-1.484Z" transform="translate(-9.316 -8.704)" fill="#fff"></path>
								<path d="M101.741,94.2H99.777V93.188A2.25,2.25,0,0,1,95.6,91.943V88.08h1.964v3.31a1.023,1.023,0,0,0,1.023,1.162c.747,0,1.189-.618,1.189-1.448V88.08h1.964Z" transform="translate(-9.97 -8.711)" fill="#fff"></path>
								<path d="M104,94.007V85.58h1.964v8.427Z" transform="translate(-10.625 -8.516)" fill="#fff"></path>
								<path d="M113.294,90.2V94.2h-1.918v-.664a2.25,2.25,0,0,1-1.844.793,1.89,1.89,0,0,1-2.1-1.918c0-1.162.83-1.844,2.351-1.844h1.614v-.092c0-.6-.4-.922-1.189-.922a4.315,4.315,0,0,0-1.844.516l-.553-1.291A6.362,6.362,0,0,1,110.629,88C112.308,88,113.285,88.811,113.294,90.2Zm-1.927,1.918v-.553h-1.236c-.59,0-.922.212-.922.664s.313.728.857.728a1.245,1.245,0,0,0,1.3-.839Z" transform="translate(-10.892 -8.705)" fill="#fff"></path>
								<path d="M120.7,92.84a2.766,2.766,0,0,1-2.158,1.374l-.286.562a.922.922,0,0,1,.775.922c0,.719-.59,1.171-1.42,1.171a1.973,1.973,0,0,1-1.079-.35l.36-.8a.922.922,0,0,0,.562.221.424.424,0,0,0,.47-.415c0-.231-.175-.415-.516-.415a3.568,3.568,0,0,0-.415,0l.443-.922a2.914,2.914,0,0,1-2.674-3.08A3,3,0,0,1,117.931,88a3.052,3.052,0,0,1,2.766,1.374l-1.411.848a1.457,1.457,0,0,0-1.236-.636c-.756,0-1.282.627-1.282,1.549s.526,1.549,1.282,1.549a1.346,1.346,0,0,0,1.254-.692Z" transform="translate(-11.463 -8.704)" fill="#fff"></path>
								<path d="M127.5,89.981v3.992h-1.936V93.31a2.25,2.25,0,0,1-1.844.793,1.9,1.9,0,0,1-2.1-1.918c0-1.162.83-1.844,2.351-1.844h1.614v-.092c0-.6-.4-.922-1.189-.922a4.242,4.242,0,0,0-1.844.516l-.562-1.291a6.362,6.362,0,0,1,2.84-.7C126.5,87.778,127.5,88.589,127.5,89.981Zm-3.614-3.061H122.68c0-1.189.4-1.77,1.189-1.77s1,.535,1.309.535.35-.157.35-.479h1.2c0,1.2-.387,1.761-1.189,1.761s-.987-.535-1.309-.535-.36.166-.36.489Zm1.687,4.979v-.553H124.34c-.59,0-.922.212-.922.664s.313.728.858.728a1.236,1.236,0,0,0,1.282-.839Z" transform="translate(-11.999 -8.482)" fill="#fff"></path>
								<path d="M135.635,91.125A3.347,3.347,0,1,1,132.3,88a3.061,3.061,0,0,1,3.338,3.126Zm-4.712,0a1.383,1.383,0,1,0,1.374-1.586,1.411,1.411,0,0,0-1.374,1.614Z" transform="translate(-12.57 -8.704)" fill="#fff"></path>
								<path d="M9.292,106.451H4.986a1.429,1.429,0,0,0,1.448,1.143,2.093,2.093,0,0,0,1.466-.627l1.033,1.014a3.531,3.531,0,0,1-2.674,1.079A3.135,3.135,0,1,1,6.2,102.8C8.361,102.791,9.449,104.21,9.292,106.451Zm-1.844-1.06a1.143,1.143,0,0,0-1.18-1.236A1.309,1.309,0,0,0,5,105.391Z" transform="translate(-2.745 -9.858)" fill="#fff"></path>
								<path d="M13.86,108.828V100.88h2.019v7.948Z" transform="translate(-3.598 -9.709)" fill="#fff"></path>
								<path d="M24.012,105.125v3.854H22.057v-3.31a1.042,1.042,0,0,0-1.079-1.162,1.245,1.245,0,0,0-1.245,1.245v3.236H17.77v-6.113h1.964v1.033a2.25,2.25,0,0,1,2.038-1.088,2.148,2.148,0,0,1,2.241,2.305Z" transform="translate(-3.903 -9.86)" fill="#fff"></path>
								<path d="M30.719,103.462l-.673,1.272a4.435,4.435,0,0,0-1.927-.618c-.35,0-.609.138-.609.424,0,.839,3.227.433,3.218,2.563,0,1.263-1.106,1.955-2.582,1.955a4.518,4.518,0,0,1-2.766-.867l.627-1.245a3.9,3.9,0,0,0,2.167.756c.387,0,.673-.129.673-.415,0-.922-3.163-.433-3.153-2.582,0-1.254,1.06-1.936,2.48-1.936a5.026,5.026,0,0,1,2.546.692Z" transform="translate(-4.496 -9.856)" fill="#fff"></path>
								<path d="M39.106,105.942a2.766,2.766,0,0,1-2.831,3.107,2.277,2.277,0,0,1-1.844-.922v3.015H32.44v-8.3H34.4v.8a2.231,2.231,0,0,1,1.844-.876,2.858,2.858,0,0,1,2.858,3.172Zm-1.973-.055a1.383,1.383,0,1,0-1.383,1.6,1.429,1.429,0,0,0,1.383-1.6Z" transform="translate(-5.046 -9.856)" fill="#fff"></path>
								<path d="M46.534,106.451H42.228a1.429,1.429,0,0,0,1.475,1.143,2.093,2.093,0,0,0,1.466-.627l1.033,1.014a3.531,3.531,0,0,1-2.674,1.079,3.135,3.135,0,1,1-.055-6.261C45.6,102.791,46.673,104.21,46.534,106.451Zm-1.844-1.06a1.143,1.143,0,0,0-1.18-1.236,1.309,1.309,0,0,0-1.272,1.236Z" transform="translate(-5.651 -9.858)" fill="#fff"></path>
								<path d="M53.617,107.593a2.821,2.821,0,0,1-2.158,1.374l-.286.553a.922.922,0,0,1,.775.922c0,.71-.59,1.171-1.42,1.171a1.982,1.982,0,0,1-1.079-.332l.36-.8a.922.922,0,0,0,.562.23.433.433,0,0,0,.47-.424c0-.231-.175-.406-.516-.406a2.286,2.286,0,0,0-.415.046l.443-.922a2.914,2.914,0,0,1-2.674-3.08,3,3,0,0,1,3.181-3.144,3.052,3.052,0,0,1,2.72,1.374L52.17,105a1.448,1.448,0,0,0-1.236-.627c-.756,0-1.282.618-1.282,1.54s.526,1.558,1.282,1.558a1.355,1.355,0,0,0,1.254-.692Z" transform="translate(-6.234 -9.856)" fill="#fff"></path>
								<path d="M60.415,104.762v3.992H58.5v-.7a2.25,2.25,0,0,1-1.844.793,1.89,1.89,0,0,1-2.093-1.918c0-1.162.821-1.844,2.351-1.844h1.6v-.092c0-.6-.4-.922-1.189-.922a4.389,4.389,0,0,0-1.844.507l-.562-1.291a6.454,6.454,0,0,1,2.84-.692C59.428,102.549,60.4,103.379,60.415,104.762ZM56.81,101.71H55.583c0-1.2.4-1.77,1.2-1.77s.987.526,1.3.526.35-.157.35-.47h1.2c0,1.189-.387,1.761-1.18,1.761s-1-.535-1.319-.535S56.81,101.378,56.81,101.71Zm1.687,4.97v-.544H57.243c-.59,0-.922.2-.922.655s.323.728.867.728a1.236,1.236,0,0,0,1.291-.839Z" transform="translate(-6.771 -9.635)" fill="#fff"></path>
								<path d="M68.555,105.915a3.347,3.347,0,1,1-3.338-3.126,3.061,3.061,0,0,1,3.338,3.126Zm-4.712,0a1.383,1.383,0,1,0,1.374-1.586,1.42,1.42,0,0,0-1.383,1.6Z" transform="translate(-7.34 -9.857)" fill="#fff"></path>
								<path d="M79.256,108.794H77.292v-.8a2.241,2.241,0,0,1-1.844.922,2.856,2.856,0,0,1-2.858-3.172c0-1.9,1.125-3.107,2.766-3.107a2.268,2.268,0,0,1,1.844.922V100.45h1.964Zm-1.964-3.043a1.383,1.383,0,1,0-1.383,1.383,1.383,1.383,0,0,0,1.383-1.383Z" transform="translate(-8.176 -9.675)" fill="#fff"></path>
								<path d="M87.3,106.451H83a1.42,1.42,0,0,0,1.438,1.143,2.075,2.075,0,0,0,1.466-.627l1.033,1.014a3.5,3.5,0,0,1-2.665,1.079,3.135,3.135,0,1,1-.055-6.261C86.371,102.791,87.449,104.21,87.3,106.451Zm-1.844-1.06a1.134,1.134,0,0,0-1.18-1.236,1.319,1.319,0,0,0-1.272,1.236Z" transform="translate(-8.827 -9.858)" fill="#fff"></path>
								<path d="M96.422,106.259a2.489,2.489,0,0,1-2.766,2.665,3.5,3.5,0,0,1-2.766-1.272l.922-1.346a2.573,2.573,0,0,0,1.669.922c.535,0,.857-.332.857-.977v-3.688H91.572V100.93H96.33Z" transform="translate(-9.603 -9.713)" fill="#fff"></path>
								<path d="M104.593,105.915a3.356,3.356,0,1,1-3.338-3.126,3.07,3.07,0,0,1,3.338,3.126Zm-4.712,0a1.383,1.383,0,1,0,1.374-1.586,1.411,1.411,0,0,0-1.374,1.6Z" transform="translate(-10.149 -9.857)" fill="#fff"></path>
								<path d="M112.108,108.423c0,1.733-1.346,2.84-3.319,2.84a4.9,4.9,0,0,1-2.766-.811l.673-1.328a3.421,3.421,0,0,0,1.9.618c.922,0,1.512-.5,1.512-1.263v-.645a2.121,2.121,0,0,1-1.761.821,2.683,2.683,0,0,1-2.637-2.969,2.619,2.619,0,0,1,2.591-2.9,2.13,2.13,0,0,1,1.844.821v-.747H112.1Zm-1.955-2.674a1.3,1.3,0,1,0-.569,1.306,1.3,1.3,0,0,0,.569-1.306Z" transform="translate(-10.757 -9.857)" fill="#fff"></path>
								<path d="M120.433,105.915a3.356,3.356,0,1,1-3.347-3.126,3.07,3.07,0,0,1,3.347,3.126Zm-4.721,0a1.383,1.383,0,1,0,1.374-1.586,1.42,1.42,0,0,0-1.392,1.6Z" transform="translate(-11.384 -9.857)" fill="#fff"></path>
								<path d="M126.779,103.462l-.664,1.272a4.426,4.426,0,0,0-1.936-.618c-.35,0-.6.138-.6.424,0,.839,3.227.433,3.218,2.563,0,1.263-1.106,1.955-2.582,1.955a4.5,4.5,0,0,1-2.766-.867l.627-1.245a3.9,3.9,0,0,0,2.167.756c.387,0,.673-.129.673-.415,0-.922-3.172-.433-3.163-2.582,0-1.254,1.07-1.936,2.489-1.936A4.988,4.988,0,0,1,126.779,103.462Z" transform="translate(-11.985 -9.856)" fill="#fff"></path>
								<path d="M84.731,37.674q0,11.784-9.331,15.214l12.42,17.519H74.349L63.441,54.787H55.9V70.462H45V21.4H63.542q11.433,0,16.311,3.854T84.731,37.674ZM71.545,43.492q2.028-1.844,2.028-5.79c0-2.637-.7-4.453-2.1-5.431S67.618,30.8,64.1,30.8H55.889V45.318h7.994c3.753,0,6.3-.609,7.662-1.826Z" transform="translate(-6.025 -3.512)" fill="#fff"></path>
								<path d="M91.46,21.4V70.425H102.4V36.687Z" transform="translate(-9.647 -3.512)" fill="#fff"></path>
								<path d="M109.314,30.713V21.4h25.31V53.109q0,8.695-4.481,13.01a15.914,15.914,0,0,1-11.507,4.306,20.681,20.681,0,0,1-15.306-6.74l5.634-7.791q4.38,4.73,9.22,4.73a5.136,5.136,0,0,0,3.891-1.789,7.613,7.613,0,0,0,1.632-5.32v-22.8Z" transform="translate(-10.573 -3.512)" fill="#fff"></path>
								<path d="M98.78,22.986c-.055,2.591,4.389,4.029,5.652.839C107.456,16.144,109.457,2,109.457,2S98.983,12.253,98.78,22.986Z" transform="translate(-10.218 -2)" fill="#fff"></path>
								<path d="M101.771,22.795,91.49,15.28l7.247,10.235S102.453,23.007,101.771,22.795Z" transform="translate(-9.65 -3.035)" fill="#fff"></path>
								<path d="M17.732,30.457A4.214,4.214,0,0,0,16.146,33.9a3.873,3.873,0,0,0,1.936,3.4q1.909,1.263,8.87,2.951T37.8,45.412Q41.7,48.879,41.7,55.472a13.25,13.25,0,0,1-4.979,10.7q-4.933,4.1-13.019,4.1-11.645,0-20.976-8.63l6.519-8q7.939,6.961,14.67,6.952a7.7,7.7,0,0,0,4.739-1.3,4.177,4.177,0,0,0,1.724-3.5,4.094,4.094,0,0,0-1.844-3.513c-1.217-.867-3.633-1.743-7.229-2.628q-8.557-2.028-12.512-5.3T4.823,34.108q0-6.989,5.016-10.779a20.148,20.148,0,0,1,12.5-3.79,30.049,30.049,0,0,1,9.82,1.687,26.343,26.343,0,0,1,8.621,4.767L35.25,34a21.913,21.913,0,0,0-13.222-4.813A6.583,6.583,0,0,0,17.732,30.457Z" transform="translate(-2.73 -3.367)" fill="#fff"></path>
							</g>
						</g>
					</svg>