<svg xmlns="http://www.w3.org/2000/svg" width="131" height="18" viewBox="0 0 131 18" fill="none">
<path d="M120.429 0.518238C120.654 -0.172745 121.631 -0.172746 121.856 0.518237L123.5 5.57827C123.6 5.88729 123.888 6.0965 124.213 6.0965H129.534C130.26 6.0965 130.562 7.02622 129.975 7.45328L125.67 10.5805C125.407 10.7715 125.297 11.1101 125.398 11.4191L127.042 16.4791C127.266 17.1701 126.476 17.7447 125.888 17.3177L121.583 14.1903C121.321 13.9994 120.965 13.9994 120.702 14.1903L116.397 17.3177C115.81 17.7447 115.019 17.1701 115.243 16.4791L116.887 11.4191C116.988 11.1101 116.878 10.7715 116.615 10.5805L112.311 7.45328C111.723 7.02622 112.025 6.0965 112.751 6.0965H118.072C118.397 6.0965 118.685 5.88729 118.785 5.57828L120.429 0.518238Z" fill="url(#paint0_linear_2002_1462)"/>
<path d="M92.4293 0.518238C92.6538 -0.172745 93.6313 -0.172746 93.8558 0.518237L95.5 5.57827C95.6004 5.88729 95.8883 6.0965 96.2133 6.0965H101.534C102.26 6.0965 102.562 7.02622 101.975 7.45328L97.6702 10.5805C97.4073 10.7715 97.2973 11.1101 97.3978 11.4191L99.0418 16.4791C99.2663 17.1701 98.4756 17.7447 97.8877 17.3177L93.5834 14.1903C93.3205 13.9994 92.9646 13.9994 92.7017 14.1903L88.3974 17.3177C87.8096 17.7447 87.0188 17.1701 87.2433 16.4791L88.8874 11.4191C88.9878 11.1101 88.8778 10.7715 88.6149 10.5805L84.3106 7.45328C83.7228 7.02622 84.0249 6.0965 84.7514 6.0965H90.0719C90.3968 6.0965 90.6848 5.88729 90.7852 5.57828L92.4293 0.518238Z" fill="url(#paint1_linear_2002_1462)"/>
<path d="M64.4293 0.518238C64.6538 -0.172745 65.6313 -0.172746 65.8558 0.518237L67.5 5.57827C67.6004 5.88729 67.8883 6.0965 68.2133 6.0965H73.5337C74.2602 6.0965 74.5623 7.02622 73.9746 7.45328L69.6702 10.5805C69.4073 10.7715 69.2973 11.1101 69.3978 11.4191L71.0418 16.4791C71.2663 17.1701 70.4756 17.7447 69.8877 17.3177L65.5834 14.1903C65.3205 13.9994 64.9646 13.9994 64.7017 14.1903L60.3974 17.3177C59.8096 17.7447 59.0188 17.1701 59.2433 16.4791L60.8874 11.4191C60.9878 11.1101 60.8778 10.7715 60.6149 10.5805L56.3106 7.45328C55.7228 7.02622 56.0249 6.0965 56.7514 6.0965H62.0719C62.3968 6.0965 62.6848 5.88729 62.7852 5.57828L64.4293 0.518238Z" fill="url(#paint2_linear_2002_1462)"/>
<path d="M36.4293 0.518238C36.6538 -0.172745 37.6313 -0.172746 37.8558 0.518237L39.5 5.57827C39.6004 5.88729 39.8883 6.0965 40.2133 6.0965H45.5337C46.2602 6.0965 46.5623 7.02622 45.9746 7.45328L41.6702 10.5805C41.4073 10.7715 41.2973 11.1101 41.3978 11.4191L43.0418 16.4791C43.2663 17.1701 42.4756 17.7447 41.8877 17.3177L37.5834 14.1903C37.3205 13.9994 36.9646 13.9994 36.7017 14.1903L32.3974 17.3177C31.8096 17.7447 31.0188 17.1701 31.2433 16.4791L32.8874 11.4191C32.9878 11.1101 32.8778 10.7715 32.6149 10.5805L28.3106 7.45328C27.7228 7.02622 28.0249 6.0965 28.7514 6.0965H34.0719C34.3968 6.0965 34.6848 5.88729 34.7852 5.57828L36.4293 0.518238Z" fill="url(#paint3_linear_2002_1462)"/>
<path d="M8.42927 0.518238C8.65379 -0.172745 9.63134 -0.172746 9.85585 0.518237L11.5 5.57827C11.6004 5.88729 11.8883 6.0965 12.2133 6.0965H17.5337C18.2602 6.0965 18.5623 7.02622 17.9746 7.45328L13.6702 10.5805C13.4073 10.7715 13.2973 11.1101 13.3978 11.4191L15.0418 16.4791C15.2663 17.1701 14.4756 17.7447 13.8877 17.3177L9.5834 14.1903C9.32054 13.9994 8.96459 13.9994 8.70172 14.1903L4.3974 17.3177C3.80961 17.7447 3.01876 17.1701 3.24327 16.4791L4.88737 11.4191C4.98777 11.1101 4.87779 10.7715 4.61492 10.5805L0.310599 7.45328C-0.277186 7.02622 0.0248949 6.0965 0.751435 6.0965H6.07187C6.39679 6.0965 6.68476 5.88729 6.78516 5.57828L8.42927 0.518238Z" fill="url(#paint4_linear_2002_1462)"/>
<defs>
<linearGradient id="paint0_linear_2002_1462" x1="121.143" y1="-1.67705" x2="121.143" y2="20.8229" gradientUnits="userSpaceOnUse">
<stop stop-color="#FFF500"/>
<stop offset="1" stop-color="#FFA800"/>
</linearGradient>
<linearGradient id="paint1_linear_2002_1462" x1="93.1426" y1="-1.67705" x2="93.1426" y2="20.8229" gradientUnits="userSpaceOnUse">
<stop stop-color="#FFF500"/>
<stop offset="1" stop-color="#FFA800"/>
</linearGradient>
<linearGradient id="paint2_linear_2002_1462" x1="65.1426" y1="-1.67705" x2="65.1426" y2="20.8229" gradientUnits="userSpaceOnUse">
<stop stop-color="#FFF500"/>
<stop offset="1" stop-color="#FFA800"/>
</linearGradient>
<linearGradient id="paint3_linear_2002_1462" x1="37.1426" y1="-1.67705" x2="37.1426" y2="20.8229" gradientUnits="userSpaceOnUse">
<stop stop-color="#FFF500"/>
<stop offset="1" stop-color="#FFA800"/>
</linearGradient>
<linearGradient id="paint4_linear_2002_1462" x1="9.14256" y1="-1.67705" x2="9.14256" y2="20.8229" gradientUnits="userSpaceOnUse">
<stop stop-color="#FFF500"/>
<stop offset="1" stop-color="#FFA800"/>
</linearGradient>
</defs>
</svg>