<svg xmlns="http://www.w3.org/2000/svg" width="18" height="18" viewBox="0 0 18 18" fill="none">
<g clip-path="url(#clip0_5_187)">
<mask id="mask0_5_187" style="mask-type:luminance" maskUnits="userSpaceOnUse" x="0" y="0" width="18" height="18">
<path d="M17.5 0H0.5V18H17.5V0Z" fill="white"/>
</mask>
<g mask="url(#mask0_5_187)">
<path d="M15.7773 4.85716H15.6424C15.4187 4.85716 15.2375 4.66518 15.2375 4.42856V2.8571H14.6978V4.42856C14.6978 4.66518 14.5167 4.85703 14.2931 4.85703H14.1582C14.0092 4.85703 13.8883 4.98502 13.8883 5.14281C13.8883 5.3006 14.0092 5.42846 14.1582 5.42846H15.7773C15.9263 5.42846 16.047 5.3006 16.047 5.14281C16.047 4.98502 15.9263 4.85716 15.7773 4.85716Z" fill="#FFE09F"/>
<path d="M14.6979 3.68863C14.7858 3.70415 14.8755 3.71431 14.9677 3.71431C15.0598 3.71431 15.1496 3.70415 15.2375 3.68863V2.8571H14.6979V3.68863Z" fill="#F6D190"/>
<path d="M16.0469 2.28568H13.8882C13.1442 2.28568 12.5391 1.64476 12.5391 0.857181V0.5714C12.5391 0.413608 12.6597 0.285755 12.8089 0.285755H17.1263C17.2754 0.285755 17.3961 0.413608 17.3961 0.5714V0.857181C17.396 1.64476 16.7908 2.28568 16.0469 2.28568ZM13.0787 0.857181C13.0787 1.32973 13.4418 1.71425 13.8882 1.71425H16.0469C16.4933 1.71425 16.8565 1.32973 16.8565 0.857181H13.0787Z" fill="#FFEAA8"/>
<path d="M1.74536 14.8571H3.90408C4.0531 14.8571 4.17399 14.9851 4.17399 15.1429V17.7142H1.47559V15.1429C1.47559 14.9851 1.59633 14.8571 1.74536 14.8571Z" fill="#ECBD83"/>
<path d="M2.01526 15.7143V14.8571H1.74536C1.59633 14.8571 1.47559 14.9851 1.47559 15.1429V17.7142H4.17399V16.8572H3.09462C2.49853 16.8572 2.01526 16.3454 2.01526 15.7143Z" fill="#E2A975"/>
<path d="M5.79309 12H7.95182C8.10084 12 8.22159 12.1279 8.22159 12.2857V17.7142H5.52319V12.2857C5.52319 12.1279 5.64407 12 5.79309 12Z" fill="#F6D190"/>
<path d="M6.06288 15.7143V12H5.79309C5.64407 12 5.52319 12.1279 5.52319 12.2857V17.7142H8.22159V16.8571H7.14223C6.54613 16.8571 6.06288 16.3454 6.06288 15.7143Z" fill="#ECBD83"/>
<path d="M13.8883 6.28572H16.047C16.1961 6.28572 16.3169 6.41371 16.3169 6.5715V17.7143H13.6185V6.5715C13.6185 6.41371 13.7393 6.28572 13.8883 6.28572Z" fill="#FFEAA8"/>
<path d="M14.1582 15.7144V6.28572H13.8883C13.7393 6.28572 13.6185 6.41371 13.6185 6.5715V17.7143H16.3169V16.8572H15.2375C14.6413 16.8572 14.1582 16.3455 14.1582 15.7144Z" fill="#FFE09F"/>
<path d="M9.84059 9.14283H11.9994C12.1483 9.14283 12.2692 9.27081 12.2692 9.42858V17.7143H9.5708V9.42858C9.5708 9.27081 9.69159 9.14283 9.84059 9.14283Z" fill="#FFE09F"/>
<path d="M10.1105 15.7143V9.14283H9.84059C9.69159 9.14283 9.5708 9.27081 9.5708 9.42858V17.7143H12.2692V16.8572H11.1899C10.5938 16.8572 10.1105 16.3454 10.1105 15.7143Z" fill="#F6D190"/>
<path d="M13.8883 0.285781V1.95089C13.8883 2.54786 14.3005 3.08084 14.8616 3.13742C15.5053 3.20251 16.047 2.66817 16.047 2.00006V0.285781C16.047 0.127991 15.9263 0 15.7773 0H14.1582C14.009 0 13.8883 0.127991 13.8883 0.285781Z" fill="#FFEAA8"/>
<path d="M13.0971 3.61436C13.0441 3.5284 12.9497 3.47772 12.855 3.48541L10.6835 3.62123C10.5346 3.63043 10.421 3.7657 10.4299 3.92322C10.4387 4.08059 10.5714 4.20378 10.715 4.19155L11.848 4.12069L1.32606 11.548C1.20194 11.6355 1.16848 11.813 1.25123 11.9442C1.30311 12.0267 1.38871 12.0713 1.476 12.0713C1.52736 12.0713 1.57924 12.0559 1.62541 12.0235L12.1794 4.5736L11.639 5.69023C11.571 5.83071 11.6236 6.00293 11.7562 6.07489C11.7955 6.09618 11.8374 6.10634 11.8788 6.10634C11.9769 6.10634 12.0716 6.04962 12.1192 5.95088L13.1111 3.90083C13.1553 3.80951 13.1497 3.7002 13.0971 3.61436Z" fill="#E2A975"/>
<path d="M16.8566 18H0.935921C0.786767 18 0.666016 17.872 0.666016 17.7143C0.666016 17.5566 0.786767 17.4286 0.935921 17.4286H16.8565C17.0056 17.4286 17.1263 17.5566 17.1263 17.7143C17.1263 17.872 17.0057 18 16.8566 18Z" fill="#DAD8DB"/>
<path d="M14.428 1.95089V0H14.1582C14.009 0 13.8883 0.127853 13.8883 0.285782V1.95089C13.8883 2.54786 14.3005 3.08084 14.8616 3.13742C14.9913 3.1506 15.1196 3.13879 15.2374 3.10694C14.7648 2.97153 14.428 2.48579 14.428 1.95089Z" fill="#FFE09F"/>
</g>
</g>
<defs>
<clipPath id="clip0_5_187">
<rect width="17" height="18" fill="white" transform="translate(0.5)"/>
</clipPath>
</defs>
</svg>